<svg width="136" height="68" viewBox="0 0 136 68" fill="none" xmlns="http://www.w3.org/2000/svg">
<g clip-path="url(#clip0_3260_47898)">
<path d="M10.3027 46.9194C10.3298 47.3056 10.2081 47.6875 9.96266 47.987C9.73146 48.2352 9.28265 48.361 8.65705 48.361C8.03145 48.361 7.59965 48.242 7.36845 48.004C7.11684 47.7012 6.99468 47.3115 7.02845 46.9194C7.02023 46.7084 7.0696 46.4992 7.17125 46.3142C7.25567 46.1672 7.36233 46.0341 7.48745 45.9198C7.62135 45.8098 7.77016 45.7193 7.92945 45.6512C8.13345 45.573 8.35445 45.4982 8.58225 45.42C8.81005 45.3418 8.98346 45.284 9.20786 45.199C9.43226 45.114 9.63965 45.0426 9.83345 44.978C9.93418 44.9468 10.0302 44.9022 10.1191 44.8454C10.1699 44.8136 10.2135 44.7714 10.2469 44.7216C10.2803 44.6718 10.3028 44.6155 10.3129 44.5564L10.3027 46.9194ZM11.1289 40.1194C10.6019 39.6774 9.76886 39.4564 8.65026 39.4564C8.15101 39.4464 7.65291 39.5082 7.17125 39.64C6.80287 39.741 6.45683 39.9105 6.15125 40.1398C5.89784 40.3331 5.6968 40.5867 5.56645 40.8776C5.44344 41.1631 5.38093 41.471 5.38286 41.782V42.2444H7.01825C7.0114 41.8961 7.13236 41.5575 7.35825 41.2924C7.58265 41.0306 8.01785 40.898 8.65705 40.898C8.92728 40.8906 9.19697 40.9262 9.45605 41.0034C9.6424 41.0602 9.8149 41.1552 9.96266 41.2822C10.0808 41.3844 10.1738 41.5123 10.2347 41.6562C10.2818 41.7824 10.3071 41.9158 10.3095 42.0506V42.4178C10.3114 42.5562 10.2823 42.6932 10.2245 42.819C10.1693 42.93 10.1008 43.0339 10.0205 43.1284C9.95415 43.2093 9.87346 43.2773 9.78245 43.329L9.57845 43.4344C9.52745 43.4344 9.39825 43.4922 9.19425 43.5704C8.99025 43.6486 8.74885 43.7336 8.47345 43.8288L7.62006 44.1246C7.32426 44.23 7.06245 44.3184 6.83125 44.3966C6.38939 44.5472 6.01256 44.8448 5.76365 45.2398C5.51497 45.637 5.38519 46.0971 5.38965 46.5658V47.4702C5.39345 47.7278 5.43586 47.9833 5.51546 48.2284C5.60736 48.5206 5.77652 48.7826 6.00506 48.9866C6.29548 49.2452 6.63561 49.4419 7.00465 49.5646C8.08469 49.8728 9.22941 49.8728 10.3095 49.5646C10.6785 49.4419 11.0186 49.2452 11.3091 48.9866C11.5349 48.7802 11.7035 48.5191 11.7987 48.2284C11.8766 47.9829 11.919 47.7276 11.9245 47.4702V41.7786C11.9293 41.4595 11.8606 41.1436 11.7238 40.8553C11.5871 40.567 11.3858 40.3141 11.1357 40.116" fill="#1D4283"/>
<path d="M15.9158 35.7063H14.3008V49.6361H15.9158V35.7063Z" fill="#1D4283"/>
<path d="M21.0643 39.4732C20.45 39.4471 19.8366 39.5418 19.2589 39.752C18.8835 39.8985 18.548 40.1315 18.2797 40.432C18.0779 40.651 17.9383 40.9197 17.8751 41.2106C17.8311 41.4097 17.8049 41.6122 17.7969 41.8158V49.6392H19.4323V42.1252C19.4324 41.9991 19.4484 41.8734 19.4799 41.7512C19.5163 41.6051 19.5929 41.472 19.7009 41.367C19.8411 41.2289 20.0076 41.1202 20.1905 41.0474C20.458 40.9494 20.7421 40.9044 21.0269 40.9148C21.1663 40.9148 21.2887 40.9148 21.3907 40.9148C21.4927 40.9148 21.6219 40.9148 21.7749 40.9148L22.1387 39.5106C21.9709 39.4868 21.8014 39.4777 21.6321 39.4834C21.4689 39.4834 21.2921 39.4834 21.0643 39.4834" fill="#1D4283"/>
<path d="M28.2123 46.9194C28.2394 47.3056 28.1178 47.6875 27.8723 47.987C27.6445 48.2352 27.2093 48.361 26.5667 48.361C25.9241 48.361 25.5093 48.242 25.2781 48.004C25.0278 47.7005 24.9058 47.3114 24.9381 46.9194C24.9299 46.7084 24.9793 46.4992 25.0809 46.3142C25.1653 46.1672 25.272 46.0341 25.3971 45.9198C25.531 45.8098 25.6798 45.7193 25.8391 45.6512C26.0465 45.573 26.2641 45.4982 26.4953 45.42C26.7265 45.3418 26.8931 45.284 27.1175 45.199C27.3419 45.114 27.5493 45.0426 27.7431 44.978C27.8447 44.9462 27.9418 44.9017 28.0321 44.8454C28.0825 44.8134 28.1255 44.7711 28.1583 44.7213C28.1912 44.6715 28.213 44.6153 28.2225 44.5564L28.2123 46.9194ZM29.0385 40.1194C28.5149 39.666 27.6887 39.445 26.5599 39.4564C26.0607 39.4464 25.5626 39.5082 25.0809 39.64C24.7124 39.7406 24.3663 39.9102 24.0609 40.1398C23.8056 40.332 23.6033 40.5859 23.4727 40.8776C23.3497 41.1631 23.2872 41.471 23.2891 41.782V42.2444H24.9245C24.9164 41.8959 25.0375 41.5568 25.2645 41.2924C25.4889 41.0306 25.9207 40.898 26.5599 40.898C26.8301 40.8903 27.0999 40.9259 27.3589 41.0034C27.5452 41.0602 27.7178 41.1552 27.8655 41.2822C27.9845 41.3835 28.0778 41.5117 28.1375 41.6562C28.1862 41.782 28.2116 41.9156 28.2123 42.0506V42.4178C28.2159 42.5563 28.1868 42.6938 28.1273 42.819C28.0722 42.93 28.0036 43.0339 27.9233 43.1284C27.857 43.2093 27.7763 43.2773 27.6853 43.329L27.4813 43.4344C27.4303 43.4344 27.3045 43.4922 27.0971 43.5704C26.8897 43.6486 26.6517 43.7336 26.3763 43.8288L25.5229 44.1246C25.2271 44.23 24.9653 44.3184 24.7341 44.3966C24.2935 44.5479 23.918 44.8454 23.6699 45.2398C23.4188 45.6361 23.2877 46.0966 23.2925 46.5658V47.4702C23.298 47.7276 23.3403 47.9829 23.4183 48.2284C23.5134 48.5191 23.6821 48.7802 23.9079 48.9866C24.1983 49.2452 24.5385 49.4419 24.9075 49.5646C25.9875 49.8728 27.1323 49.8728 28.2123 49.5646C28.5817 49.4427 28.922 49.2459 29.2119 48.9866C29.4404 48.7826 29.6096 48.5206 29.7015 48.2284C29.7811 47.9833 29.8235 47.7278 29.8273 47.4702V41.7786C29.8321 41.4595 29.7635 41.1436 29.6267 40.8553C29.4899 40.567 29.2887 40.3141 29.0385 40.116" fill="#1D4283"/>
<path d="M36.6304 42.2577V42.4311C36.6306 42.5748 36.6004 42.717 36.5418 42.8483C36.4832 42.9795 36.3975 43.0969 36.2904 43.1927C36.19 43.2941 36.0702 43.3743 35.9382 43.4286C35.8062 43.4829 35.6647 43.5102 35.522 43.5089H34.4272C34.3626 43.5089 34.2742 43.5089 34.1586 43.5259C34.043 43.541 33.9292 43.5672 33.8186 43.6041C33.7077 43.6399 33.6041 43.6951 33.5126 43.7673C33.4244 43.8375 33.3632 43.936 33.3392 44.0461V42.0469C33.3437 41.9316 33.3631 41.8173 33.397 41.7069C33.4424 41.5619 33.5258 41.4316 33.6384 41.3295C33.7888 41.1969 33.9647 41.0963 34.1552 41.0337C34.4368 40.9406 34.7326 40.898 35.029 40.9079C35.3132 40.8973 35.5969 40.94 35.8654 41.0337C36.0497 41.0974 36.217 41.202 36.355 41.3397C36.4613 41.4466 36.5386 41.5788 36.5794 41.7239C36.6088 41.8465 36.6248 41.9719 36.627 42.0979L36.6304 42.2577ZM37.783 40.3945C37.5124 40.0966 37.1775 39.864 36.8038 39.7145C35.6277 39.3429 34.3657 39.3429 33.1896 39.7145C32.8154 39.8632 32.4804 40.0958 32.2104 40.3945C32.0122 40.6119 31.8729 40.8764 31.8058 41.1629C31.761 41.3652 31.7349 41.5712 31.7276 41.7783V47.4665C31.714 47.8773 31.8333 48.2815 32.0676 48.6191C32.1815 48.7719 32.3102 48.9132 32.4518 49.0407C32.627 49.1964 32.8255 49.3238 33.04 49.4181C33.3086 49.5368 33.5889 49.6269 33.8764 49.6867C34.2491 49.761 34.6286 49.7963 35.0086 49.7921C35.5017 49.8042 35.994 49.7458 36.4706 49.6187C36.7903 49.5319 37.0943 49.3953 37.3716 49.2141C37.66 49.0201 37.8941 48.7556 38.0516 48.4457C38.1993 48.1478 38.275 47.8194 38.2726 47.4869V47.0245H36.6406C36.6415 47.2214 36.6081 47.417 36.542 47.6025C36.4772 47.7861 36.3587 47.946 36.202 48.0615C36.0734 48.1357 35.9379 48.1972 35.7974 48.2451C35.5424 48.3251 35.2756 48.3608 35.0086 48.3505C34.7997 48.3545 34.591 48.3351 34.3864 48.2927C34.25 48.2632 34.1176 48.2175 33.992 48.1567C33.8859 48.1187 33.7878 48.061 33.703 47.9867C33.6354 47.9175 33.5771 47.8398 33.5296 47.7555C33.4043 47.533 33.3442 47.2796 33.3562 47.0245V46.1609C33.353 45.9916 33.3856 45.8236 33.4518 45.6677C33.518 45.5119 33.6164 45.3718 33.7404 45.2565C33.8564 45.1404 33.9942 45.0485 34.146 44.9861C34.2977 44.9236 34.4603 44.8919 34.6244 44.8927H36.0864C36.2616 44.8925 36.4358 44.8661 36.6032 44.8145C36.7673 44.7695 36.9276 44.7115 37.0826 44.6411C37.2665 44.5645 37.4313 44.4484 37.5654 44.3011C37.8267 44.0642 38.0272 43.768 38.1502 43.4375C38.2293 43.2017 38.2718 42.9552 38.276 42.7065V41.7851C38.2677 41.5815 38.2416 41.379 38.1978 41.1799C38.1344 40.8898 37.9961 40.6213 37.7966 40.4013" fill="#1D4283"/>
<path d="M44.6973 43.0265V47.1983C44.6963 47.3354 44.671 47.4712 44.6225 47.5995C44.5674 47.7477 44.4776 47.8806 44.3607 47.9871C44.2168 48.1151 44.046 48.2092 43.8609 48.2625C43.6033 48.3412 43.3346 48.3779 43.0653 48.3713C42.8016 48.3773 42.5387 48.3406 42.2867 48.2625C42.1025 48.207 41.9322 48.1132 41.7869 47.9871C41.6675 47.8746 41.5756 47.7362 41.5183 47.5825C41.4589 47.4278 41.4233 47.265 41.4129 47.0997V43.0197C41.4055 42.8088 41.4548 42.5998 41.5557 42.4145C41.6421 42.2688 41.7485 42.136 41.8719 42.0201C42.0028 41.9015 42.1521 41.8051 42.3139 41.7345C42.5213 41.6563 42.7389 41.5815 42.9701 41.5033L43.5923 41.2925C43.8167 41.2143 44.0241 41.1429 44.2179 41.0817C44.3235 41.0534 44.4235 41.0074 44.5137 40.9457C44.5643 40.9107 44.6069 40.8653 44.6386 40.8125C44.6703 40.7597 44.6903 40.7008 44.6973 40.6397V43.0265ZM44.6973 38.1679V38.5317C44.7008 38.6713 44.6717 38.8098 44.6123 38.9363C44.5571 39.0462 44.4886 39.149 44.4083 39.2423C44.342 39.3232 44.2613 39.3912 44.1703 39.4429L43.9697 39.5483C43.9153 39.5483 43.7895 39.6061 43.5855 39.6843L42.8715 39.9427L42.0283 40.2419L41.2395 40.5105C40.7908 40.6586 40.4075 40.9578 40.1549 41.3571C39.9032 41.7531 39.7721 42.2138 39.7775 42.6831V43.1251H39.7979V47.0249H39.7775V47.4873C39.7757 47.7971 39.8382 48.1039 39.9611 48.3883C40.0905 48.6807 40.2916 48.9356 40.5459 49.1295C40.8522 49.3575 41.198 49.527 41.5659 49.6293C42.0513 49.7594 42.5527 49.8201 43.0551 49.8095C44.1703 49.8095 44.9897 49.5885 45.5133 49.1465C45.7635 48.9479 45.9661 48.6958 46.1061 48.4087C46.2462 48.1215 46.3201 47.8067 46.3225 47.4873V35.6995H44.6871L44.6973 38.1679Z" fill="#1D4283"/>
<path d="M53.1309 46.9193C53.1563 47.3053 53.0349 47.6867 52.7909 47.9869C52.5597 48.2351 52.1109 48.3609 51.4819 48.3609C50.8529 48.3609 50.4245 48.2419 50.1967 48.0039C49.9451 47.7012 49.823 47.3115 49.8567 46.9193C49.8485 46.7084 49.8979 46.4991 49.9995 46.3141C50.0851 46.1669 50.1929 46.0339 50.3191 45.9197C50.4513 45.8091 50.5991 45.7186 50.7577 45.6511C50.9651 45.5729 51.1827 45.4981 51.4139 45.4199C51.6451 45.3417 51.8117 45.2839 52.0361 45.1989L52.6617 44.9779C52.7633 44.9462 52.8604 44.9016 52.9507 44.8453C53.0011 44.8134 53.0441 44.7711 53.077 44.7213C53.1098 44.6714 53.1317 44.6152 53.1411 44.5563L53.1309 46.9193ZM53.9571 40.1193C53.4335 39.666 52.6073 39.445 51.4785 39.4563C50.9793 39.4466 50.4812 39.5084 49.9995 39.6399C49.631 39.7406 49.2849 39.9102 48.9795 40.1397C48.7243 40.332 48.5219 40.5858 48.3913 40.8775C48.2695 41.1633 48.2081 41.4712 48.2111 41.7819V42.2443H49.8397C49.8316 41.8959 49.9527 41.5568 50.1797 41.2923C50.4041 41.0305 50.8359 40.8979 51.4751 40.8979C51.7454 40.8903 52.0151 40.9259 52.2741 41.0033C52.4612 41.061 52.6346 41.1558 52.7841 41.2821C52.901 41.3847 52.9929 41.5126 53.0527 41.6561C53.1015 41.7819 53.1268 41.9156 53.1275 42.0505V42.4177C53.1312 42.5563 53.1021 42.6937 53.0425 42.8189C52.9873 42.9291 52.92 43.0329 52.8419 43.1283C52.7737 43.2086 52.692 43.2765 52.6005 43.3289L52.3999 43.4343C52.3455 43.4343 52.2197 43.4921 52.0157 43.5703L51.2949 43.8287L50.4381 44.1245C50.1423 44.2299 49.8805 44.3183 49.6493 44.3965C49.2087 44.5478 48.8332 44.8454 48.5851 45.2397C48.335 45.6363 48.2051 46.0969 48.2111 46.5657V47.4701C48.2153 47.7274 48.2565 47.9828 48.3335 48.2283C48.4287 48.519 48.5973 48.7802 48.8231 48.9865C49.1136 49.2452 49.4537 49.4418 49.8227 49.5645C50.9028 49.8727 52.0475 49.8727 53.1275 49.5645C53.4973 49.4434 53.8377 49.2466 54.1271 48.9865C54.3557 48.7825 54.5248 48.5205 54.6167 48.2283C54.6963 47.9833 54.7387 47.7277 54.7425 47.4701V41.7785C54.7473 41.4595 54.6787 41.1436 54.5419 40.8553C54.4051 40.567 54.2039 40.314 53.9537 40.1159" fill="#1D4283"/>
<path d="M62.7878 41.3367C62.5404 40.9411 62.1647 40.6422 61.7236 40.4901L60.9246 40.2215L60.0678 39.9257L59.3572 39.6639C59.1532 39.5891 59.0172 39.5449 58.973 39.5313L58.7724 39.4259C58.6803 39.373 58.5985 39.3039 58.531 39.2219C58.4522 39.1282 58.3849 39.0255 58.3304 38.9159C58.271 38.7894 58.2419 38.6509 58.2454 38.5113V35.6995H56.6406V49.6395H58.2556V40.6261C58.2628 40.688 58.2836 40.7475 58.3165 40.8004C58.3494 40.8533 58.3936 40.8983 58.446 40.9321C58.5356 40.9906 58.6329 41.0363 58.735 41.0681C58.939 41.1327 59.1498 41.2007 59.3674 41.2789C59.585 41.3571 59.7924 41.4251 59.9828 41.4897C60.1732 41.5543 60.4316 41.6427 60.6356 41.7209C60.8063 41.7878 60.9631 41.8858 61.098 42.0099C61.2218 42.1229 61.3253 42.2563 61.404 42.4043C61.5016 42.5906 61.5485 42.7993 61.54 43.0095V49.6395H63.172V42.6627C63.178 42.1938 63.0481 41.7333 62.798 41.3367" fill="#1D4283"/>
<path d="M63.158 18.1892H61.543V32.119H63.158V18.1892Z" fill="#1D4283"/>
<path d="M38.8494 18.1892H37.2344V32.119H38.8494V18.1892Z" fill="#1D4283"/>
<path d="M56.6416 29.4874C56.6396 29.6135 56.6237 29.7389 56.594 29.8614C56.5539 30.0061 56.4779 30.1382 56.373 30.2456C56.2345 30.3826 56.0672 30.4871 55.8834 30.5516C55.6147 30.6448 55.3312 30.6874 55.047 30.6774H45.8534C45.5692 30.688 45.2855 30.6453 45.017 30.5516C44.8332 30.4871 44.6659 30.3826 44.5274 30.2456C44.4201 30.1401 44.3437 30.0072 44.3064 29.8614C44.2749 29.7392 44.2589 29.6136 44.2588 29.4874V21.936H42.6234V33.4246C42.6223 33.5523 42.604 33.6792 42.569 33.802C42.5227 33.9457 42.4395 34.0747 42.3276 34.176C42.1787 34.3072 42.0054 34.4078 41.8176 34.4718C41.5329 34.5665 41.2334 34.6091 40.9336 34.5976L40.971 36.0392C41.5864 36.0654 42.2009 35.9707 42.7798 35.7604C43.154 35.6117 43.489 35.3791 43.759 35.0804C43.9541 34.8713 44.0932 34.6164 44.1636 34.3392C44.2061 34.1366 44.2311 33.9307 44.2384 33.7238V31.8946C44.7444 32.0521 45.2726 32.1267 45.8024 32.1156H55.013C55.6283 32.1414 56.2428 32.0467 56.8218 31.8368C57.1967 31.6895 57.532 31.4566 57.801 31.1568C57.9995 30.9357 58.1387 30.6678 58.2056 30.3782C58.2488 30.1792 58.2738 29.9766 58.2804 29.773V18.1892H56.6416V29.4874Z" fill="#1D4283"/>
<path d="M31.678 29.4876C31.6779 29.6138 31.6619 29.7395 31.6304 29.8616C31.5931 30.0074 31.5167 30.1403 31.4094 30.2458C31.2709 30.3828 31.1036 30.4873 30.9198 30.5518C30.6524 30.6453 30.3699 30.688 30.0868 30.6776H20.5192C20.5386 30.6371 20.5545 30.595 20.5668 30.5518C20.6464 30.3068 20.6888 30.0512 20.6926 29.7936V24.1054C20.6944 23.7956 20.6319 23.4888 20.509 23.2044C20.3798 22.9109 20.1773 22.6557 19.9208 22.4632C19.615 22.2344 19.269 22.0649 18.9008 21.9634C18.4178 21.833 17.9186 21.7723 17.4184 21.7832C16.2794 21.7832 15.4498 22.0008 14.933 22.4632C14.6855 22.6623 14.4868 22.9153 14.3519 23.2028C14.2169 23.4903 14.1494 23.8049 14.1544 24.1224V24.5848H15.766V24.3774C15.7676 24.2423 15.7941 24.1086 15.8442 23.983C15.9015 23.8372 15.9937 23.7076 16.1128 23.6056C16.261 23.4783 16.435 23.3843 16.6228 23.3302C16.8804 23.2515 17.1491 23.2148 17.4184 23.2214C18.061 23.2214 18.4928 23.354 18.7172 23.6158C18.9436 23.8806 19.0647 24.2195 19.0572 24.5678V29.2394C19.0911 29.6327 18.969 30.0235 18.7172 30.3274C18.486 30.562 18.0576 30.6674 17.4286 30.6674L13.8008 30.6402V32.1192H30.0324C30.6477 32.145 31.2622 32.0503 31.8412 31.8404C32.2156 31.6922 32.5507 31.4595 32.8204 31.1604C33.0198 30.9404 33.1581 30.672 33.2216 30.3818C33.2655 30.1828 33.2917 29.9803 33.2998 29.7766V21.9226H31.6644L31.678 29.4876Z" fill="#1D4283"/>
<path d="M32.4001 20.2122C32.3592 20.1525 32.3411 20.0801 32.3491 20.0082V19.3282C32.3461 19.2662 32.3668 19.2055 32.4069 19.1582C32.4069 19.1582 32.4545 19.1072 32.6653 19.1072C32.7297 19.1034 32.7942 19.1115 32.8557 19.131C32.8892 19.1387 32.9206 19.1538 32.9475 19.1752C32.9598 19.187 32.9701 19.2008 32.9781 19.216C32.9813 19.2328 32.9813 19.2501 32.9781 19.267V19.5424H33.9301V19.1956C33.9304 19.0607 33.8999 18.9275 33.841 18.8061C33.7821 18.6847 33.6963 18.5784 33.5901 18.4952C33.3178 18.2944 32.9821 18.199 32.6449 18.2266C32.4624 18.2237 32.2804 18.2466 32.1043 18.2946C31.9581 18.3356 31.8209 18.4037 31.6997 18.4952C31.5894 18.5864 31.5031 18.7031 31.4481 18.8352C31.3965 18.9543 31.3699 19.0827 31.3699 19.2126V20.2054C31.3682 20.2303 31.3682 20.2553 31.3699 20.2802H30.8633V20.4944V20.7052V20.9602V21.1744H34.0117V20.2462L32.6245 20.2632C32.533 20.2734 32.4405 20.2556 32.3593 20.2122" fill="#1D4283"/>
<path d="M10.29 29.5794C10.2891 29.706 10.2708 29.8318 10.2356 29.9534C10.1902 30.0985 10.1069 30.2287 9.99423 30.3308C9.84452 30.4608 9.67144 30.5612 9.48423 30.6266C9.19955 30.7215 8.90007 30.7641 8.60023 30.7524C8.31604 30.7627 8.03241 30.7201 7.76383 30.6266C7.57999 30.5621 7.41276 30.4576 7.27423 30.3206C7.16711 30.2109 7.09087 30.0748 7.05322 29.9262C7.02487 29.8126 7.00779 29.6964 7.00223 29.5794V24.4794C7.00553 24.3568 7.02148 24.2349 7.04983 24.1156C7.08747 23.967 7.16371 23.8309 7.27082 23.7212C7.40936 23.5842 7.57658 23.4797 7.76043 23.4152C8.029 23.3217 8.31264 23.2791 8.59683 23.2894C8.89667 23.2777 9.19615 23.3203 9.48082 23.4152C9.66865 23.4792 9.84197 23.5798 9.99082 23.711C10.1027 23.8123 10.186 23.9413 10.2322 24.085C10.2672 24.2078 10.2855 24.3347 10.2866 24.4624L10.29 29.5794ZM11.446 22.7794C11.1747 22.4807 10.8386 22.248 10.4634 22.0994C9.28854 21.7276 8.02751 21.7276 6.85263 22.0994C6.47845 22.2481 6.14343 22.4807 5.87342 22.7794C5.67366 22.9997 5.53428 23.2679 5.46883 23.558C5.42506 23.7571 5.39889 23.9596 5.39062 24.1632V29.8718C5.39889 30.0754 5.42506 30.278 5.46883 30.477C5.535 30.7668 5.67429 31.0349 5.87342 31.2556C6.14522 31.5481 6.4801 31.7749 6.85263 31.9186C8.02751 32.2904 9.28854 32.2904 10.4634 31.9186C10.8369 31.7749 11.1729 31.5482 11.446 31.2556C11.6427 31.0376 11.7807 30.7732 11.8472 30.4872C11.892 30.2849 11.9182 30.0789 11.9254 29.8718V24.1836C11.9182 23.9765 11.892 23.7705 11.8472 23.5682C11.7821 23.2817 11.6439 23.017 11.446 22.7998" fill="#1D4283"/>
<path d="M10.7492 19.0735H9.11719V21.0149H10.7492V19.0735Z" fill="#1D4283"/>
<path d="M8.17837 19.0735H6.54297V21.0149H8.17837V19.0735Z" fill="#1D4283"/>
<path d="M114.47 34.2516C114.47 34.17 114.47 34.0884 114.47 34.0034C114.47 33.9184 114.47 33.8368 114.47 33.7552L114.501 33.4458C114.635 32.4589 115.123 31.554 115.873 30.8984C116.623 30.2428 117.584 29.8808 118.581 29.8792H118.645C119.458 29.8665 120.249 29.6138 120.919 29.153C121.588 28.6922 122.107 28.0437 122.409 27.2891C122.711 26.5344 122.784 25.7073 122.618 24.9116C122.451 24.1159 122.053 23.3871 121.474 22.8167C120.895 22.2464 120.16 21.86 119.362 21.706C118.564 21.552 117.738 21.6374 116.988 21.9513C116.238 22.2653 115.598 22.7939 115.147 23.4706C114.697 24.1474 114.457 24.9421 114.456 25.755C114.426 26.8288 113.977 27.8482 113.207 28.5968C112.437 29.3454 111.405 29.7642 110.331 29.7642C109.256 29.7642 108.224 29.3454 107.454 28.5968C106.684 27.8482 106.235 26.8288 106.205 25.755C106.174 24.6813 105.726 23.6618 104.955 22.9133C104.185 22.1647 103.153 21.7459 102.079 21.7459C101.005 21.7459 99.9726 22.1647 99.2022 22.9133C98.4319 23.6618 97.9836 24.6813 97.9528 25.755C97.9528 26.8488 97.5183 27.8979 96.7449 28.6713C95.9714 29.4447 94.9224 29.8792 93.8286 29.8792C92.7348 29.8792 91.6858 29.4447 90.9124 28.6713C90.1389 27.8979 89.7044 26.8488 89.7044 25.755C89.7057 24.941 89.4662 24.1448 89.0161 23.4665C88.566 22.7882 87.9254 22.2582 87.1749 21.943C86.4244 21.6278 85.5974 21.5416 84.798 21.6952C83.9986 21.8488 83.2624 22.2354 82.6821 22.8063C82.1019 23.3771 81.7033 24.1068 81.5367 24.9036C81.37 25.7004 81.4427 26.5287 81.7455 27.2843C82.0483 28.0399 82.5678 28.6891 83.2387 29.1502C83.9095 29.6113 84.7017 29.8638 85.5156 29.8758H85.5802C86.5765 29.8767 87.5388 30.2384 88.289 30.8941C89.0391 31.5499 89.5262 32.4552 89.6602 33.4424L89.6908 33.7484C89.6908 33.83 89.6908 33.9116 89.6908 33.9932C89.6908 34.034 89.6908 34.0714 89.6908 34.1122V34C89.6908 34.085 89.6908 34.1666 89.6908 34.2482L89.6636 34.5576C89.5283 35.5443 89.0407 36.4488 88.2909 37.1043C87.5411 37.7597 86.5795 38.122 85.5836 38.1242H85.519C84.7062 38.1376 83.9155 38.391 83.2462 38.8524C82.5769 39.3137 82.0589 39.9626 81.7573 40.7175C81.4556 41.4724 81.3838 42.2996 81.5508 43.0952C81.7178 43.8907 82.1162 44.6192 82.6959 45.1891C83.2757 45.7589 84.0109 46.1448 84.8092 46.2981C85.6075 46.4514 86.4334 46.3654 87.1829 46.0508C87.9325 45.7362 88.5724 45.2071 89.0223 44.53C89.4721 43.8529 89.7118 43.058 89.7112 42.245C89.7112 41.7034 89.8179 41.1672 90.0252 40.6668C90.2324 40.1664 90.5362 39.7118 90.9192 39.3288C91.3021 38.9458 91.7568 38.642 92.2572 38.4348C92.7575 38.2275 93.2938 38.1208 93.8354 38.1208C94.377 38.1208 94.9133 38.2275 95.4137 38.4348C95.9141 38.642 96.3687 38.9458 96.7517 39.3288C97.1346 39.7118 97.4384 40.1664 97.6457 40.6668C97.8529 41.1672 97.9596 41.7034 97.9596 42.245C97.959 43.0588 98.199 43.8545 98.6494 44.5323C99.0997 45.21 99.7403 45.7396 100.491 46.0543C101.241 46.369 102.068 46.4549 102.867 46.3012C103.666 46.1475 104.402 45.761 104.982 45.1904C105.562 44.6197 105.96 43.8903 106.127 43.0938C106.294 42.2974 106.222 41.4694 105.919 40.7139C105.617 39.9585 105.098 39.3093 104.427 38.8479C103.757 38.3865 102.965 38.1336 102.152 38.1208H102.087C101.091 38.12 100.129 37.7583 99.3785 37.1025C98.6284 36.4468 98.1412 35.5415 98.0072 34.5542L97.9766 34.2448C97.9766 34.1632 97.9766 34.0816 97.9766 33.9966V34.1156C97.9766 34.0748 97.9766 34.034 97.9766 33.9966C97.9766 33.915 97.9766 33.83 97.9766 33.7484L98.0072 33.4424C98.1466 32.4596 98.636 31.5601 99.3856 30.9092C100.135 30.2584 101.095 29.9001 102.087 29.9001C103.08 29.9001 104.039 30.2584 104.789 30.9092C105.538 31.5601 106.028 32.4596 106.167 33.4424L106.194 33.7484C106.194 33.83 106.194 33.9116 106.194 33.9966C106.194 33.9966 106.194 34.0272 106.194 34.0442C106.194 34.1666 106.194 34.2924 106.194 34.4148C106.194 34.4794 106.215 34.544 106.225 34.6052C106.235 34.6664 106.225 34.7514 106.256 34.8194C106.286 34.8874 106.296 34.9724 106.313 35.0472C106.33 35.122 106.341 35.1594 106.358 35.2138C106.375 35.2682 106.415 35.377 106.446 35.4552C106.477 35.5334 106.477 35.547 106.494 35.5912C106.511 35.6354 106.575 35.7612 106.616 35.8496C106.616 35.8802 106.647 35.9142 106.664 35.9448C106.715 36.0366 106.769 36.125 106.823 36.2134C106.823 36.2372 106.851 36.261 106.868 36.2814C106.932 36.3766 107 36.4718 107.072 36.5602L107.099 36.5976C107.177 36.6928 107.262 36.7846 107.347 36.873C108.104 37.6436 109.133 38.0857 110.213 38.1038H110.288C110.83 38.1034 111.367 38.2097 111.867 38.4168C112.368 38.6239 112.823 38.9276 113.206 39.3106C113.59 39.6936 113.894 40.1484 114.101 40.649C114.309 41.1496 114.416 41.6862 114.416 42.228C114.414 43.0421 114.654 43.8383 115.104 44.5166C115.554 45.1949 116.195 45.7249 116.945 46.0401C117.696 46.3552 118.523 46.4414 119.322 46.2878C120.121 46.1342 120.858 45.7477 121.438 45.1768C122.018 44.606 122.417 43.8762 122.583 43.0795C122.75 42.2827 122.677 41.4544 122.375 40.6988C122.072 39.9432 121.552 39.294 120.881 38.8329C120.211 38.3718 119.418 38.1193 118.604 38.1072H118.54C117.544 38.1057 116.582 37.7437 115.832 37.0881C115.082 36.4325 114.594 35.5276 114.46 34.5406L114.47 34.2516ZM89.7078 33.8844C89.7078 33.9184 89.7078 33.9558 89.7078 33.9898V33.8844ZM97.9562 33.9966C97.9579 33.9774 97.9579 33.9581 97.9562 33.9388V33.8844V33.9966ZM114.453 34.1224C114.453 34.085 114.453 34.051 114.453 34.0136V34.119V34.1224ZM114.453 34.0034C114.453 33.966 114.453 33.9286 114.453 33.8912V34.0034ZM106.211 33.8844C106.21 33.9127 106.21 33.9411 106.211 33.9694C106.211 33.9694 106.211 33.9694 106.211 33.9966V33.8844Z" fill="#1D4283"/>
<path d="M96.7712 20.3999C97.3497 19.8205 97.7434 19.0826 97.9026 18.2795C98.0618 17.4764 97.9794 16.6441 97.6657 15.8878C97.3521 15.1315 96.8213 14.4852 96.1404 14.0304C95.4595 13.5757 94.6592 13.333 93.8404 13.333C93.0217 13.333 92.2213 13.5757 91.5404 14.0304C90.8596 14.4852 90.3288 15.1315 90.0151 15.8878C89.7015 16.6441 89.6191 17.4764 89.7783 18.2795C89.9375 19.0826 90.3312 19.8205 90.9096 20.3999C91.6868 21.1762 92.7403 21.6123 93.8387 21.6123C94.9372 21.6123 95.9907 21.1762 96.7678 20.3999" fill="#4B82BC"/>
<path d="M105.012 12.1209C105.591 11.5416 105.985 10.8037 106.144 10.0005C106.304 9.19724 106.222 8.3647 105.908 7.60814C105.595 6.85157 105.064 6.20494 104.383 5.75C103.702 5.29506 102.902 5.05225 102.083 5.05225C101.264 5.05225 100.463 5.29506 99.7821 5.75C99.1012 6.20494 98.5704 6.85157 98.2569 7.60814C97.9434 8.3647 97.8612 9.19724 98.0208 10.0005C98.1804 10.8037 98.5746 11.5416 99.1535 12.1209C99.5381 12.5057 99.9947 12.8109 100.497 13.0192C101 13.2275 101.539 13.3346 102.083 13.3346C102.627 13.3346 103.165 13.2275 103.668 13.0192C104.171 12.8109 104.627 12.5057 105.012 12.1209Z" fill="#1D4283"/>
<path d="M107.477 14.5556C106.897 15.135 106.502 15.8735 106.342 16.6776C106.181 17.4817 106.263 18.3153 106.577 19.0728C106.89 19.8304 107.422 20.478 108.103 20.9336C108.785 21.3892 109.586 21.6324 110.406 21.6324C111.226 21.6324 112.028 21.3892 112.709 20.9336C113.391 20.478 113.922 19.8304 114.236 19.0728C114.549 18.3153 114.631 17.4817 114.471 16.6776C114.311 15.8735 113.915 15.135 113.335 14.5556C112.951 14.1708 112.494 13.8655 111.992 13.6573C111.489 13.449 110.95 13.3418 110.406 13.3418C109.862 13.3418 109.324 13.449 108.821 13.6573C108.318 13.8655 107.862 14.1708 107.477 14.5556Z" fill="#4B82BC"/>
<path d="M123.921 30.9875C123.341 31.5672 122.947 32.3057 122.787 33.1097C122.627 33.9136 122.709 34.7469 123.023 35.5042C123.336 36.2616 123.867 36.9088 124.549 37.3642C125.231 37.8196 126.032 38.0627 126.852 38.0627C127.671 38.0627 128.473 37.8196 129.154 37.3642C129.836 36.9088 130.367 36.2616 130.681 35.5042C130.994 34.7469 131.077 33.9136 130.917 33.1097C130.757 32.3057 130.362 31.5672 129.782 30.9875C129.005 30.211 127.951 29.7749 126.852 29.7749C125.753 29.7749 124.699 30.211 123.921 30.9875Z" fill="#4B82BC"/>
<path d="M107.454 47.5999C106.875 48.1792 106.481 48.9171 106.322 49.7203C106.162 50.5236 106.244 51.3561 106.558 52.1127C106.871 52.8693 107.402 53.5159 108.083 53.9708C108.764 54.4258 109.564 54.6686 110.383 54.6686C111.202 54.6686 112.003 54.4258 112.684 53.9708C113.365 53.5159 113.896 52.8693 114.209 52.1127C114.523 51.3561 114.605 50.5236 114.445 49.7203C114.286 48.9171 113.891 48.1792 113.312 47.5999C112.928 47.2147 112.472 46.9091 111.969 46.7006C111.466 46.4921 110.928 46.3848 110.383 46.3848C109.839 46.3848 109.3 46.4921 108.798 46.7006C108.295 46.9091 107.839 47.2147 107.454 47.5999Z" fill="#4B82BC"/>
<path d="M99.1535 55.8788C98.5746 56.4581 98.1804 57.1959 98.0208 57.9992C97.8612 58.8024 97.9434 59.635 98.2569 60.3916C98.5704 61.1481 99.1012 61.7947 99.7821 62.2497C100.463 62.7046 101.264 62.9474 102.083 62.9474C102.902 62.9474 103.702 62.7046 104.383 62.2497C105.064 61.7947 105.595 61.1481 105.908 60.3916C106.222 59.635 106.304 58.8024 106.144 57.9992C105.985 57.1959 105.591 56.4581 105.012 55.8788C104.627 55.494 104.171 55.1888 103.668 54.9805C103.165 54.7722 102.627 54.665 102.083 54.665C101.539 54.665 101 54.7722 100.497 54.9805C99.9947 55.1888 99.5381 55.494 99.1535 55.8788Z" fill="#1D4283"/>
<path d="M80.2422 36.846C80.8211 36.2667 81.2153 35.5288 81.3749 34.7256C81.5345 33.9223 81.4523 33.0898 81.1388 32.3332C80.8253 31.5767 80.2945 30.93 79.6136 30.4751C78.9326 30.0202 78.132 29.7773 77.3131 29.7773C76.4941 29.7773 75.6936 30.0202 75.0126 30.4751C74.3316 30.93 73.8008 31.5767 73.4873 32.3332C73.1738 33.0898 73.0917 33.9223 73.2513 34.7256C73.4109 35.5288 73.8051 36.2667 74.384 36.846C74.7686 37.2308 75.2252 37.536 75.7278 37.7443C76.2304 37.9525 76.769 38.0597 77.3131 38.0597C77.8571 38.0597 78.3958 37.9525 78.8984 37.7443C79.401 37.536 79.8576 37.2308 80.2422 36.846Z" fill="#4B82BC"/>
<path d="M90.9113 47.6C90.3324 48.1792 89.9382 48.9171 89.7786 49.7204C89.619 50.5236 89.7012 51.3562 90.0147 52.1127C90.3282 52.8693 90.859 53.5159 91.5399 53.9709C92.2209 54.4258 93.0215 54.6686 93.8404 54.6686C94.6594 54.6686 95.4599 54.4258 96.1409 53.9709C96.8219 53.5159 97.3527 52.8693 97.6662 52.1127C97.9797 51.3562 98.0618 50.5236 97.9022 49.7204C97.7426 48.9171 97.3484 48.1792 96.7695 47.6C96.3849 47.2152 95.9283 46.9099 95.4257 46.7017C94.9231 46.4934 94.3844 46.3862 93.8404 46.3862C93.2964 46.3862 92.7577 46.4934 92.2551 46.7017C91.7525 46.9099 91.2959 47.2152 90.9113 47.6Z" fill="#4B82BC"/>
</g>
<defs>
<clipPath id="clip0_3260_47898">
<rect width="136" height="68" fill="white"/>
</clipPath>
</defs>
</svg>
